<svg width="200" height="200" viewBox="0 0 200 200" fill="none" xmlns="http://www.w3.org/2000/svg">
<g clip-path="url(#clip0_367_1113)">
<path d="M99.6409 68.4822C99.6409 -65.4272 141.002 28.3605 107.522 86.3527C141.002 28.3605 242.91 17.2838 126.936 84.2439C242.91 17.2838 182.374 99.9948 115.403 99.9948C182.352 99.9948 242.91 182.706 126.936 115.756C242.91 182.706 141.002 171.629 107.522 113.637C141.002 171.629 99.6409 265.427 99.6409 131.507C99.6409 265.427 58.3343 171.629 91.76 113.637C58.2908 171.629 -43.6169 182.706 72.3568 115.756C-43.6169 182.706 16.919 99.9948 83.89 99.9948C16.9298 99.9948 -43.6169 17.2838 72.3568 84.2439C-43.6169 17.2838 58.2908 28.3605 91.76 86.3527C58.2908 28.3605 99.6409 -65.4272 99.6409 68.4822Z" fill="#A54A69" fill-opacity="0.65098"/>
</g>
<defs>
<clipPath id="clip0_367_1113">
<rect width="200" height="200" fill="white"/>
</clipPath>
</defs>
</svg>
